<svg
  version="1.1"
  viewBox="0.0 0.0 453.54330708661416 453.54330708661416"
  fill="none"
  stroke="none"
  stroke-linecap="square"
  stroke-miterlimit="10"
  xmlns:xlink="http://www.w3.org/1999/xlink"
  xmlns="http://www.w3.org/2000/svg"
>
  <clipPath id="ga1d6f73343_0_0.0">
    <path
      d="m0 0l453.5433 0l0 453.5433l-453.5433 0l0 -453.5433z"
      clip-rule="nonzero"
    />
  </clipPath>
  <g clip-path="url(#ga1d6f73343_0_0.0)">
    <path
      fill=""
      d="m0 0l453.5433 0l0 453.5433l-453.5433 0z"
      fill-rule="evenodd"
    />
    <path
      fill="#000000"
      fill-opacity="0.0"
      d="m301.2117 172.95041l155.18109 0l0 215.43307l-155.18109 0z"
      fill-rule="evenodd"
    />
    <path
      fill="#efefef"
      d="m374.60233 394.12946q-16.546875 0 -30.203125 -8.421875q-13.640625 -8.4375 -21.765625 -22.390625q-8.125 -13.953125 -8.125 -30.828125l0 -14.09375q0 -1.53125 1.53125 -1.53125l34.34375 0q1.234375 0 1.234375 1.53125l0 14.09375q0 10.125 6.734375 17.34375q6.75 7.203125 16.25 7.203125q9.515625 0 16.25 -7.359375q6.75 -7.375 6.75 -17.1875q0 -11.34375 -14.71875 -19.625q-4.90625 -2.75 -15.328125 -8.578125q-10.421875 -5.828125 -19.625 -11.046875q-16.859375 -9.8125 -25.0 -24.671875q-8.125 -14.875015 -8.125 -33.593765q0 -17.171875 8.28125 -30.8125q8.28125 -13.640625 21.921875 -21.609375q13.65625 -7.984375 29.59375 -7.984375q16.265625 0 29.90625 8.125q13.640625 8.125 21.765625 21.78125q8.140625 13.640625 8.140625 30.5l0 25.156265q0 1.21875 -1.234375 1.21875l-34.34375 0q-1.234375 0 -1.234375 -1.21875l-0.296875 -25.156265q0 -10.734375 -6.75 -17.46875q-6.75 -6.75 -15.953125 -6.75q-9.5 0 -16.25 7.203125q-6.734375 7.203125 -6.734375 17.015625q0 10.125 4.28125 16.875q4.296875 6.7500153 15.640625 12.875015q1.53125 0.921875 5.96875 3.21875q4.453125 2.296875 9.671875 5.21875q5.21875 2.90625 9.359375 5.0625q4.140625 2.140625 5.0625 2.75q15.328125 8.59375 24.21875 21.015625q8.890625 12.40625 8.890625 30.5q0 17.484375 -8.125 31.4375q-8.125 13.953125 -21.78125 22.078125q-13.640625 8.125 -30.203125 8.125z"
      fill-rule="nonzero"
    />
    <path
      fill="#000000"
      fill-opacity="0.0"
      d="m141.46489 144.0232l200.62993 0l0 265.7953l-200.62993 0z"
      fill-rule="evenodd"
    />
    <path
      fill="#efefef"
      d="m237.07426 419.9802q-21.265625 0 -38.46875 -10.625q-17.203125 -10.640625 -27.265625 -28.421875q-10.046875 -17.78125 -10.046875 -39.828125l0.390625 -120.625q0 -21.28125 9.859375 -38.859375q9.859375 -17.59375 27.0625 -28.21875q17.203125 -10.640625 38.46875 -10.640625q21.26564 0 38.281265 10.4375q17.015625 10.4375 27.0625 28.03125q10.0625 17.59375 10.0625 39.25l0 17.78125q0 1.546875 -1.546875 1.546875l-43.3125 0q-1.546875 0 -1.546875 -1.546875l0 -17.78125q0 -12.765625 -8.3125 -22.046875q-8.312515 -9.28125 -20.687515 -9.28125q-13.921875 0 -21.265625 9.484375q-7.34375 9.46875 -7.34375 21.84375l0 120.625q0 14.3125 8.3125 23.203125q8.3125 8.890625 20.296875 8.890625q12.375 0 20.687515 -9.859375q8.3125 -9.859375 8.3125 -22.234375l0 -17.78125q0 -1.546875 1.546875 -1.546875l43.6875 0q1.546875 0 1.546875 1.546875l0 17.78125q0 22.046875 -10.25 39.828125q-10.234375 17.78125 -27.25 28.421875q-17.015625 10.625 -38.281265 10.625z"
      fill-rule="nonzero"
    />
    <path
      fill="#000000"
      fill-opacity="0.0"
      d="m-3.1398346 173.33377l155.1811 0l0 207.46457l-155.1811 0z"
      fill-rule="evenodd"
    />
    <path
      fill="#efefef"
      d="m19.360165 387.46603q-1.234375 0 -1.234375 -1.53125l0.609375 -210.67186q0 -1.234375 1.234375 -1.234375l37.40625 0q1.234375 0 2.15625 1.234375l27.906254 40.46875l27.890625 -40.46875q0.921875 -1.234375 2.15625 -1.234375l37.71875 0q1.21875 0 1.21875 1.234375l0.625 210.67186q0 1.53125 -1.234375 1.53125l-34.65625 0q-1.21875 0 -1.21875 -1.53125l-0.3125 -156.39061l-32.1875 46.60936l-31.906254 -46.60936l-0.296875 156.39061q0 1.53125 -1.234375 1.53125l-34.640625 0z"
      fill-rule="nonzero"
    />
    <g filter="url(#shadowFilter-ga1d6f73343_0_0.1)">
      <use
        xlink:href="#ga1d6f73343_0_0.1"
        transform="matrix(1.0 0.0 0.0 1.0 2.8773590648581036 2.778633658341535)"
      />
    </g>
    <defs>
      <filter
        id="shadowFilter-ga1d6f73343_0_0.1"
        filterUnits="userSpaceOnUse"
      >
        <feGaussianBlur in="SourceAlpha" stdDeviation="5.5" result="blur" />
        <feComponentTransfer in="blur" color-interpolation-filters="sRGB">
          <feFuncR type="linear" slope="0" intercept="0.0" />
          <feFuncG type="linear" slope="0" intercept="0.0" />
          <feFuncB type="linear" slope="0" intercept="0.0" />
          <feFuncA type="linear" slope="0.5" intercept="0" />
        </feComponentTransfer>
      </filter>
    </defs>
    <g id="ga1d6f73343_0_0.1">
      <path
        fill="#000000"
        fill-opacity="0.0"
        d="m310.07388 95.2273l126.17322 0l0 192.62994l-126.17322 0z"
        fill-rule="evenodd"
      />
      <path
        fill="#434343"
        d="m383.4645 305.00476q-16.546875 0 -30.203125 -8.421875q-13.640625 -8.4375 -21.765625 -22.390625q-8.125 -13.953125 -8.125 -30.82811l0 -14.09375q0 -1.53125 1.53125 -1.53125l34.34375 0q1.234375 0 1.234375 1.53125l0 14.09375q0 10.125 6.734375 17.343735q6.75 7.203125 16.25 7.203125q9.515625 0 16.25 -7.359375q6.75 -7.3749847 6.75 -17.187485q0 -11.34375 -14.71875 -19.625q-4.90625 -2.75 -15.328125 -8.578125q-10.421875 -5.828125 -19.625 -11.046875q-16.859375 -9.8125 -25.0 -24.671875q-8.125 -14.875 -8.125 -33.59375q0 -17.171875 8.28125 -30.812508q8.28125 -13.640625 21.921875 -21.609375q13.65625 -7.984375 29.59375 -7.984375q16.265625 0 29.90625 8.125q13.640625 8.125 21.765625 21.78125q8.140625 13.640633 8.140625 30.500008l0 25.15625q0 1.21875 -1.234375 1.21875l-34.34375 0q-1.234375 0 -1.234375 -1.21875l-0.296875 -25.15625q0 -10.734375 -6.75 -17.46875q-6.75 -6.7500076 -15.953125 -6.7500076q-9.5 0 -16.25 7.2031326q-6.734375 7.203125 -6.734375 17.015625q0 10.125 4.28125 16.875q4.296875 6.75 15.640625 12.875q1.53125 0.921875 5.96875 3.21875q4.453125 2.296875 9.671875 5.21875q5.21875 2.90625 9.359375 5.0625q4.140625 2.140625 5.0625 2.75q15.328125 8.59375 24.21875 21.015625q8.890625 12.40625 8.890625 30.5q0 17.48436 -8.125 31.437485q-8.125 13.953125 -21.78125 22.078125q-13.640625 8.125 -30.203125 8.125z"
        fill-rule="nonzero"
      />
    </g>
    <g filter="url(#shadowFilter-ga1d6f73343_0_0.2)">
      <use
        xlink:href="#ga1d6f73343_0_0.2"
        transform="matrix(1.0 0.0 0.0 1.0 0.4185388520007997 5.985384242741142)"
      />
    </g>
    <defs>
      <filter
        id="shadowFilter-ga1d6f73343_0_0.2"
        filterUnits="userSpaceOnUse"
      >
        <feGaussianBlur in="SourceAlpha" stdDeviation="3.0" result="blur" />
        <feComponentTransfer in="blur" color-interpolation-filters="sRGB">
          <feFuncR type="linear" slope="0" intercept="0.0" />
          <feFuncG type="linear" slope="0" intercept="0.0" />
          <feFuncB type="linear" slope="0" intercept="0.0" />
          <feFuncA type="linear" slope="0.5" intercept="0" />
        </feComponentTransfer>
      </filter>
    </defs>
    <g id="ga1d6f73343_0_0.2">
      <path
        fill="#000000"
        fill-opacity="0.0"
        d="m141.1811 73.164215l155.1811 0l0 231.05511l-155.1811 0z"
        fill-rule="evenodd"
      />
      <path
        fill="#635bff"
        d="m236.79048 331.75113q-21.265625 0 -38.46875 -10.625q-17.203125 -10.640625 -27.265625 -28.421875q-10.046875 -17.78125 -10.046875 -39.828125l0.390625 -120.625q0 -21.28125 9.859375 -38.859375q9.859375 -17.59375 27.0625 -28.21875q17.203125 -10.640625 38.46875 -10.640625q21.26561 0 38.281235 10.4375q17.015625 10.4375 27.0625 28.03125q10.0625 17.59375 10.0625 39.25l0 17.78125q0 1.546875 -1.546875 1.546875l-43.3125 0q-1.546875 0 -1.546875 -1.546875l0 -17.78125q0 -12.765625 -8.3125 -22.046875q-8.312485 -9.28125 -20.687485 -9.28125q-13.921875 0 -21.265625 9.484375q-7.34375 9.46875 -7.34375 21.84375l0 120.625q0 14.3125 8.3125 23.203125q8.3125 8.890625 20.296875 8.890625q12.375 0 20.687485 -9.859375q8.3125 -9.859375 8.3125 -22.234375l0 -17.78125q0 -1.546875 1.546875 -1.546875l43.6875 0q1.546875 0 1.546875 1.546875l0 17.78125q0 22.046875 -10.25 39.828125q-10.234375 17.78125 -27.25 28.421875q-17.015625 10.625 -38.281235 10.625z"
        fill-rule="nonzero"
      />
    </g>
    <g filter="url(#shadowFilter-ga1d6f73343_0_0.3)">
      <use
        xlink:href="#ga1d6f73343_0_0.3"
        transform="matrix(1.0 0.0 0.0 1.0 0.0 2.0)"
      />
    </g>
    <defs>
      <filter
        id="shadowFilter-ga1d6f73343_0_0.3"
        filterUnits="userSpaceOnUse"
      >
        <feGaussianBlur in="SourceAlpha" stdDeviation="4.0" result="blur" />
        <feComponentTransfer in="blur" color-interpolation-filters="sRGB">
          <feFuncR type="linear" slope="0" intercept="0.0" />
          <feFuncG type="linear" slope="0" intercept="0.0" />
          <feFuncB type="linear" slope="0" intercept="0.0" />
          <feFuncA type="linear" slope="0.5" intercept="0" />
        </feComponentTransfer>
      </filter>
    </defs>
    <g id="ga1d6f73343_0_0.3">
      <path
        fill="#000000"
        fill-opacity="0.0"
        d="m-13.995676 87.88762l155.1811 0l0 207.46455l-155.1811 0z"
        fill-rule="evenodd"
      />
      <path
        fill="#434343"
        d="m8.504324 302.0199q-1.2343745 0 -1.2343745 -1.53125l0.609375 -210.67188q0 -1.234375 1.2343745 -1.234375l37.40625 0q1.234375 0 2.15625 1.234375l27.90625 40.46875l27.890625 -40.46875q0.921875 -1.234375 2.15625 -1.234375l37.718742 0q1.21875 0 1.21875 1.234375l0.625 210.67188q0 1.53125 -1.234375 1.53125l-34.656242 0q-1.21875 0 -1.21875 -1.53125l-0.3125 -156.39062l-32.1875 46.609375l-31.90625 -46.609375l-0.296875 156.39062q0 1.53125 -1.234375 1.53125l-34.640625 0z"
        fill-rule="nonzero"
      />
    </g>
    <path
      fill="#efefef"
      d="m325.78513 128.97137l49.540283 31.70491l-3.1466064 9.271469l-49.540283 -31.70491z"
      fill-rule="evenodd"
    />
    <path
      fill="#efefef"
      d="m80.155754 120.03818l23.046875 33.985626l-4.936638 7.2427216l-23.046867 -33.985626z"
      fill-rule="evenodd"
    />
  </g>
</svg>
